<svg width="47" height="55" viewBox="0 0 47 55" fill="none" xmlns="http://www.w3.org/2000/svg">
<path d="M45.4872 3.25555C45.0369 3.08601 44.5172 3.18773 44.1708 3.52682L35.6484 11.8684L23.9042 0.339399C23.4538 -0.101414 22.6916 -0.101414 22.2066 0.339399L10.4971 11.8006L2.04398 3.49291C1.69754 3.15383 1.17789 3.0521 0.727518 3.25555C0.27715 3.4251 0 3.86591 0 4.34063V32.4171C0 44.8955 10.3585 55.0342 23.1074 55.0342C35.8563 55.0342 46.2147 44.8955 46.2147 32.4171V4.34063C46.2147 3.86591 45.9376 3.45901 45.4872 3.25555ZM23.0727 2.81474L33.9855 13.496L23.142 24.1433L12.1946 13.4282L23.0727 2.78083V2.81474ZM43.8243 32.3832C43.8243 43.5731 34.5398 52.6606 23.1074 52.6606C11.6749 52.6606 2.39042 43.5731 2.39042 32.3832V7.15506L21.4445 25.8388L15.0007 32.1797C14.5504 32.6205 14.5504 33.3665 15.0007 33.8413C15.4511 34.2821 16.2133 34.2821 16.6983 33.8413L43.8243 7.15506V32.3832Z" fill="#C1AC7B"/>
</svg>
